<?xml version="1.0" encoding="UTF-8" standalone="no"?>
<!-- Created with Inkscape (http://www.inkscape.org/) -->

<svg
   xmlns:dc="http://purl.org/dc/elements/1.1/"
   xmlns:cc="http://creativecommons.org/ns#"
   xmlns:rdf="http://www.w3.org/1999/02/22-rdf-syntax-ns#"
   xmlns:svg="http://www.w3.org/2000/svg"
   xmlns="http://www.w3.org/2000/svg"
   xmlns:sodipodi="http://sodipodi.sourceforge.net/DTD/sodipodi-0.dtd"
   xmlns:inkscape="http://www.inkscape.org/namespaces/inkscape"
   width="210mm"
   height="297mm"
   viewBox="0 0 744.09448819 1052.3622047"
   id="svg2"
   version="1.1"
   inkscape:version="0.91 r13725"
   sodipodi:docname="icon.svg">
  <defs
     id="defs4" />
  <sodipodi:namedview
     id="base"
     pagecolor="#ffffff"
     bordercolor="#666666"
     borderopacity="1.0"
     inkscape:pageopacity="0.0"
     inkscape:pageshadow="2"
     inkscape:zoom="3.7661916"
     inkscape:cx="201.22538"
     inkscape:cy="790.69972"
     inkscape:document-units="px"
     inkscape:current-layer="layer1"
     showgrid="false"
     inkscape:snap-bbox="true"
     inkscape:bbox-paths="true"
     inkscape:bbox-nodes="true"
     inkscape:snap-bbox-edge-midpoints="true"
     inkscape:snap-bbox-midpoints="true"
     inkscape:object-paths="true"
     inkscape:snap-intersection-paths="true"
     inkscape:object-nodes="true"
     inkscape:snap-smooth-nodes="true"
     inkscape:snap-global="true"
     inkscape:window-width="1680"
     inkscape:window-height="988"
     inkscape:window-x="-8"
     inkscape:window-y="-8"
     inkscape:window-maximized="1">
    <inkscape:grid
       type="xygrid"
       id="grid4167" />
  </sodipodi:namedview>
  <metadata
     id="metadata7">
    <rdf:RDF>
      <cc:Work
         rdf:about="">
        <dc:format>image/svg+xml</dc:format>
        <dc:type
           rdf:resource="http://purl.org/dc/dcmitype/StillImage" />
        <dc:title></dc:title>
      </cc:Work>
    </rdf:RDF>
  </metadata>
  <g
     inkscape:label="Layer 1"
     inkscape:groupmode="layer"
     id="layer1">
    <rect
       style="color:#000000;clip-rule:nonzero;display:inline;overflow:visible;visibility:visible;opacity:1;isolation:auto;mix-blend-mode:normal;color-interpolation:sRGB;color-interpolation-filters:linearRGB;solid-color:#000000;solid-opacity:1;fill:#ffffff;fill-opacity:1;fill-rule:nonzero;stroke:none;stroke-width:5.19999981;stroke-linecap:round;stroke-linejoin:miter;stroke-miterlimit:4;stroke-dasharray:none;stroke-dashoffset:0;stroke-opacity:1;color-rendering:auto;image-rendering:auto;shape-rendering:auto;text-rendering:auto;enable-background:accumulate"
       id="rect4136"
       width="152.22441"
       height="152.22441"
       x="126.74493"
       y="176.25"
       inkscape:export-xdpi="729"
       inkscape:export-ydpi="729" />
    <path
       style="color:#000000;clip-rule:nonzero;display:inline;overflow:visible;visibility:visible;opacity:1;isolation:auto;mix-blend-mode:normal;color-interpolation:sRGB;color-interpolation-filters:linearRGB;solid-color:#000000;solid-opacity:1;fill:#000000;fill-opacity:1;fill-rule:nonzero;stroke:none;stroke-width:5.19999981;stroke-linecap:round;stroke-linejoin:miter;stroke-miterlimit:4;stroke-dasharray:none;stroke-dashoffset:0;stroke-opacity:1;color-rendering:auto;image-rendering:auto;shape-rendering:auto;text-rendering:auto;enable-background:accumulate"
       d="M 181.26758 176.25 C 177.15971 176.25 173.85156 179.55815 173.85156 183.66602 L 173.85156 321.05859 C 173.85156 325.16646 177.15971 328.47461 181.26758 328.47461 L 224.44727 328.47461 C 228.55513 328.47461 231.86328 325.16646 231.86328 321.05859 L 231.86328 183.66602 C 231.86328 179.55815 228.55513 176.25 224.44727 176.25 L 181.26758 176.25 z M 202.63867 185.97656 A 18.842632 18.842632 0 0 1 221.48242 204.82031 A 18.842632 18.842632 0 0 1 202.63867 223.66211 A 18.842632 18.842632 0 0 1 183.79688 204.82031 A 18.842632 18.842632 0 0 1 202.63867 185.97656 z M 202.63867 233.51953 A 18.842632 18.842632 0 0 1 221.48242 252.36133 A 18.842632 18.842632 0 0 1 202.63867 271.20508 A 18.842632 18.842632 0 0 1 183.79688 252.36133 A 18.842632 18.842632 0 0 1 202.63867 233.51953 z M 202.63867 281.0625 A 18.842632 18.842632 0 0 1 221.48242 299.9043 A 18.842632 18.842632 0 0 1 202.63867 318.74805 A 18.842632 18.842632 0 0 1 183.79688 299.9043 A 18.842632 18.842632 0 0 1 202.63867 281.0625 z "
       id="rect4146" />
    <g
       id="g4191"
       transform="matrix(0.90836318,0,0,0.90836318,14.268213,15.464745)">
      <path
         sodipodi:nodetypes="ccccccc"
         inkscape:connector-curvature="0"
         id="path4169"
         d="m 245,185.40871 0,5.10127 0,34.89873 35,-35 0,-5 -29.77197,0 z"
         style="fill:#000000;fill-rule:evenodd;stroke:none;stroke-width:1px;stroke-linecap:butt;stroke-linejoin:miter;stroke-opacity:1" />
      <path
         style="fill:#000000;fill-rule:evenodd;stroke:none;stroke-width:1px;stroke-linecap:butt;stroke-linejoin:miter;stroke-opacity:1"
         d="m 245,237.74766 0,5.10127 0,34.89873 35,-35 0,-5 -29.77197,0 z"
         id="path4171"
         inkscape:connector-curvature="0"
         sodipodi:nodetypes="ccccccc" />
      <path
         sodipodi:nodetypes="ccccccc"
         inkscape:connector-curvature="0"
         id="path4173"
         d="m 245,290.08655 0,5.10127 0,34.89873 35,-35 0,-5 -29.77197,0 z"
         style="fill:#000000;fill-rule:evenodd;stroke:none;stroke-width:1px;stroke-linecap:butt;stroke-linejoin:miter;stroke-opacity:1" />
    </g>
    <g
       id="g4196"
       transform="matrix(0.90836318,0,0,0.90836318,14.268213,15.464745)">
      <path
         style="fill:#000000;fill-rule:evenodd;stroke:none;stroke-width:1px;stroke-linecap:butt;stroke-linejoin:miter;stroke-opacity:1"
         d="m 170.22803,185.40871 0,5.10127 0,34.89873 -35,-35 0,-5 29.77197,0 z"
         id="path4185"
         inkscape:connector-curvature="0"
         sodipodi:nodetypes="ccccccc" />
      <path
         sodipodi:nodetypes="ccccccc"
         inkscape:connector-curvature="0"
         id="path4187"
         d="m 170.22803,237.74766 0,5.10127 0,34.89873 -35,-35 0,-5 29.77197,0 z"
         style="fill:#000000;fill-rule:evenodd;stroke:none;stroke-width:1px;stroke-linecap:butt;stroke-linejoin:miter;stroke-opacity:1" />
      <path
         style="fill:#000000;fill-rule:evenodd;stroke:none;stroke-width:1px;stroke-linecap:butt;stroke-linejoin:miter;stroke-opacity:1"
         d="m 170.22803,290.08655 0,5.10127 0,34.89873 -35,-35 0,-5 29.77197,0 z"
         id="path4189"
         inkscape:connector-curvature="0"
         sodipodi:nodetypes="ccccccc" />
    </g>
  </g>
</svg>
